{
	"asset":{
		"copyright":"Jhoneiker",
		"generator":"Khronos glTF Blender I/O v4.0.44",
		"version":"2.0"
	},
	"scene":0,
	"scenes":[
		{
			"name":"Scene",
			"nodes":[
				0
			]
		}
	],
	"nodes":[
		{
			"mesh":0,
			"name":"Cube.001"
		}
	],
	"materials":[
		{
			"doubleSided":true,
			"name":"Material.001",
			"pbrMetallicRoughness":{
				"baseColorFactor":[
					0.8007099628448486,
					0,
					0.014461049810051918,
					1
				],
				"metallicFactor":0.6539792418479919
			}
		}
	],
	"meshes":[
		{
			"name":"Cube.009",
			"primitives":[
				{
					"attributes":{
						"POSITION":0,
						"NORMAL":1,
						"TEXCOORD_0":2
					},
					"indices":3,
					"material":0
				}
			]
		}
	],
	"accessors":[
		{
			"bufferView":0,
			"componentType":5126,
			"count":165894,
			"max":[
				0.5027904510498047,
				0.410334050655365,
				0.9724847674369812
			],
			"min":[
				-0.5027903914451599,
				-1.1709396839141846,
				-0.972484827041626
			],
			"type":"VEC3"
		},
		{
			"bufferView":1,
			"componentType":5126,
			"count":165894,
			"type":"VEC3"
		},
		{
			"bufferView":2,
			"componentType":5126,
			"count":165894,
			"type":"VEC2"
		},
		{
			"bufferView":3,
			"componentType":5125,
			"count":983040,
			"type":"SCALAR"
		}
	],
	"bufferViews":[
		{
			"buffer":0,
			"byteLength":1990728,
			"byteOffset":0,
			"target":34962
		},
		{
			"buffer":0,
			"byteLength":1990728,
			"byteOffset":1990728,
			"target":34962
		},
		{
			"buffer":0,
			"byteLength":1327152,
			"byteOffset":3981456,
			"target":34962
		},
		{
			"buffer":0,
			"byteLength":3932160,
			"byteOffset":5308608,
			"target":34963
		}
	],
	"buffers":[
		{
			"byteLength":9240768,
			"uri":"corazon.bin"
		}
	]
}
