{
	"asset":{
		"generator":"Khronos glTF Blender I/O v4.0.44",
		"version":"2.0"
	},
	"scene":0,
	"scenes":[
		{
			"name":"Scene",
			"nodes":[
				0
			]
		}
	],
	"nodes":[
		{
			"mesh":0,
			"name":"Cube",
			"translation":[
				-0.0022330284118652344,
				-0.0029765963554382324,
				0.012638330459594727
			]
		}
	],
	"materials":[
		{
			"doubleSided":true,
			"name":"Material",
			"pbrMetallicRoughness":{
				"baseColorFactor":[
					0.8007099628448486,
					0,
					0.014461049810051918,
					1
				],
				"metallicFactor":0.6539792418479919,
				"roughnessFactor":1
			}
		}
	],
	"meshes":[
		{
			"name":"Mesh",
			"primitives":[
				{
					"attributes":{
						"POSITION":0,
						"NORMAL":1,
						"TEXCOORD_0":2
					},
					"indices":3,
					"material":0
				}
			]
		}
	],
	"accessors":[
		{
			"bufferView":0,
			"componentType":5126,
			"count":774,
			"max":[
				0.5027904510498047,
				0.4093318283557892,
				0.9706352949142456
			],
			"min":[
				-0.5027903914451599,
				-1.1709396839141846,
				-0.9706353545188904
			],
			"type":"VEC3"
		},
		{
			"bufferView":1,
			"componentType":5126,
			"count":774,
			"type":"VEC3"
		},
		{
			"bufferView":2,
			"componentType":5126,
			"count":774,
			"type":"VEC2"
		},
		{
			"bufferView":3,
			"componentType":5123,
			"count":3840,
			"type":"SCALAR"
		}
	],
	"bufferViews":[
		{
			"buffer":0,
			"byteLength":9288,
			"byteOffset":0,
			"target":34962
		},
		{
			"buffer":0,
			"byteLength":9288,
			"byteOffset":9288,
			"target":34962
		},
		{
			"buffer":0,
			"byteLength":6192,
			"byteOffset":18576,
			"target":34962
		},
		{
			"buffer":0,
			"byteLength":7680,
			"byteOffset":24768,
			"target":34963
		}
	],
	"buffers":[
		{
			"byteLength":32448,
			"uri":"corazon.bin"
		}
	]
}
